<?xml version="1.0" standalone="no"?><!DOCTYPE svg PUBLIC "-//W3C//DTD SVG 1.1//EN" "http://www.w3.org/Graphics/SVG/1.1/DTD/svg11.dtd"><svg t="1533259811215" class="icon" style="" viewBox="0 0 1050 1024" version="1.1" xmlns="http://www.w3.org/2000/svg" p-id="2206" xmlns:xlink="http://www.w3.org/1999/xlink" width="131.25" height="128"><defs><style type="text/css"></style></defs><path d="M78.279111 268.958025c18.571062 0 33.640296-15.056593 33.640296-33.640296L111.919407 74.271605l148.252444 0c18.760691 0 33.98163-15.208296 33.98163-33.98163S278.919901 6.320988 260.15921 6.320988L78.607802 6.320988c-18.760691 0-33.98163 15.208296-33.98163 33.98163 0 1.618173 0.265481 3.173136 0.480395 4.728099C44.891654 46.585679 44.638815 48.140642 44.638815 49.758815l0 185.558914C44.638815 253.88879 59.695407 268.958025 78.279111 268.958025zM260.15921 949.728395 111.919407 949.728395 111.919407 788.682272c0-18.583704-15.056593-33.640296-33.640296-33.640296-18.583704 0-33.640296 15.056593-33.640296 33.640296l0 185.571556c0 1.618173 0.25284 3.173136 0.480395 4.728099-0.214914 1.554963-0.480395 3.109926-0.480395 4.728099 0 18.760691 15.208296 33.98163 33.98163 33.98163l181.551407 0c18.760691 0 33.98163-15.208296 33.98163-33.98163S278.919901 949.728395 260.15921 949.728395zM1008.993975 482.923457 40.302617 482.923457c-18.760691 0-33.98163 15.208296-33.98163 33.98163 0 18.748049 15.208296 33.98163 33.98163 33.98163l968.691358 0c18.760691 0 33.98163-15.220938 33.98163-33.98163C1042.962963 498.131753 1027.754667 482.923457 1008.993975 482.923457zM789.124741 74.271605l148.252444 0 0 161.046123c0 18.583704 15.056593 33.640296 33.640296 33.640296s33.640296-15.056593 33.640296-33.640296L1004.657778 49.758815c0-1.618173-0.265481-3.173136-0.480395-4.740741 0.227556-1.554963 0.480395-3.109926 0.480395-4.728099 0-18.760691-15.220938-33.98163-33.98163-33.98163L789.124741 6.308346c-18.760691 0-33.98163 15.208296-33.98163 33.98163S770.364049 74.271605 789.124741 74.271605zM971.017481 755.041975c-18.583704 0-33.640296 15.056593-33.640296 33.640296l0 161.046123L789.124741 949.728395c-18.760691 0-33.98163 15.208296-33.98163 33.98163s15.208296 33.98163 33.98163 33.98163l181.551407 0c18.748049 0 33.98163-15.208296 33.98163-33.98163 0-1.618173-0.265481-3.173136-0.480395-4.728099 0.227556-1.554963 0.480395-3.109926 0.480395-4.728099L1004.657778 788.682272C1004.657778 770.098568 989.588543 755.041975 971.017481 755.041975z" p-id="2207" fill="#ffffff"></path></svg>